<?xml version="1.0" encoding="utf-8"?>
<!-- Generator: Adobe Illustrator 28.1.0, SVG Export Plug-In . SVG Version: 6.00 Build 0)  -->
<svg version="1.1" id="Calque_1" xmlns="http://www.w3.org/2000/svg" xmlns:xlink="http://www.w3.org/1999/xlink" x="0px" y="0px"
	 viewBox="0 0 100 100" style="enable-background:new 0 0 100 100;" xml:space="preserve">
<style type="text/css">
	.st0{clip-path:url(#SVGID_00000125577527967079534380000010010301763343489966_);}
	.st1{fill-rule:evenodd;clip-rule:evenodd;fill:url(#SVGID_00000072245869269122380720000002694866590560357814_);}
</style>
<g>
	<g>
		<defs>
			<rect id="SVGID_1_" width="100" height="100"/>
		</defs>
		<clipPath id="SVGID_00000063621819970730381920000016632243846930074772_">
			<use xlink:href="#SVGID_1_"  style="overflow:visible;"/>
		</clipPath>
		<g style="clip-path:url(#SVGID_00000063621819970730381920000016632243846930074772_);">
			
				<linearGradient id="SVGID_00000181807186537816839030000001597186879381608090_" gradientUnits="userSpaceOnUse" x1="328.6964" y1="387.2057" x2="271.9464" y2="444.9557" gradientTransform="matrix(1 0 0 1 -247.6 -368.9)">
				<stop  offset="5.098620e-02" style="stop-color:#F8EE7C"/>
				<stop  offset="1" style="stop-color:#FFFCE3"/>
			</linearGradient>
			<path style="fill-rule:evenodd;clip-rule:evenodd;fill:url(#SVGID_00000181807186537816839030000001597186879381608090_);" d="
				M50,50c0,0,6.2-16.7,6.2-28.6C56.2,9.6,53.5,0,50,0s-6.2,9.6-6.2,21.4C43.8,33.3,50,50,50,50z M50,50c0,0,7.4,16.3,15.8,24.6
				c8.4,8.4,17.1,13.2,19.6,10.7c2.4-2.4-2.4-11.2-10.7-19.6C66.3,57.4,50,50,50,50z M50,50c0,0,16.7-6.2,28.6-6.2S100,46.5,100,50
				s-9.6,6.2-21.4,6.2S50,50,50,50z M50,50c0,0-16.3,7.4-24.6,15.8C17,74.2,12.2,82.9,14.6,85.4C17,87.8,25.8,83,34.2,74.7
				C42.6,66.3,50,50,50,50z M50,50L50,50c0,0,6.2,16.8,6.2,28.6S53.4,100,50,100c-3.5,0-6.2-9.6-6.2-21.4S50,50,50,50z M50,50
				c0,0-16.7-6.2-28.6-6.2C9.6,43.8,0,46.5,0,50s9.6,6.2,21.4,6.2C33.3,56.2,50,50,50,50z M50,50c0,0,16.3-7.4,24.6-15.8
				c8.4-8.4,13.2-17.1,10.7-19.6c-2.4-2.4-11.2,2.4-19.6,10.7C57.4,33.7,50,50,50,50z M34.2,25.4C42.6,33.7,50,50,50,50
				s-16.3-7.4-24.6-15.8C17,25.8,12.2,17.1,14.6,14.6C17.1,12.2,25.8,17,34.2,25.4z"/>
		</g>
	</g>
</g>
</svg>
