<?xml version="1.0" encoding="utf-8"?>
<!-- Generator: Adobe Illustrator 28.1.0, SVG Export Plug-In . SVG Version: 6.00 Build 0)  -->
<svg version="1.1" id="Calque_1" xmlns="http://www.w3.org/2000/svg" xmlns:xlink="http://www.w3.org/1999/xlink" x="0px" y="0px"
	 viewBox="0 0 100 100" style="enable-background:new 0 0 100 100;" xml:space="preserve">
<style type="text/css">
	.st0{fill-rule:evenodd;clip-rule:evenodd;fill:#F8EE7C;}
</style>
<path class="st0" d="M49.9,76.5c20.2,0,37.6-12.9,46.4-20.7c3.5-3.1,3.5-8.4,0-11.5C87.5,36.5,70,23.6,49.9,23.6
	c-20.2,0-37.6,12.9-46.4,20.7C0,47.5,0,52.7,3.5,55.8C12.2,63.6,29.7,76.5,49.9,76.5z M49.9,68.5c10.2,0,18.4-8.3,18.4-18.4
	c0-10.2-8.3-18.4-18.4-18.4c-10.2,0-18.4,8.3-18.4,18.4C31.4,60.2,39.7,68.5,49.9,68.5z"/>
</svg>
